<svg width="76" height="76" viewBox="0 0 76 76" fill="none" xmlns="http://www.w3.org/2000/svg">
<g clip-path="url(#clip0)">
<path d="M37.9959 76C30.4815 75.9983 23.1362 73.7682 16.889 69.5917C10.6418 65.4152 5.77309 59.4798 2.8986 52.536C0.0241066 45.5923 -0.727112 37.952 0.739929 30.5813C2.20697 23.2106 5.82639 16.4405 11.1405 11.1269C16.4547 5.81338 23.2249 2.19508 30.5951 0.729534C37.9653 -0.73601 45.6045 0.0170179 52.5468 2.8934C59.4891 5.76978 65.4227 10.6403 69.5974 16.8892C73.772 23.1381 76.0002 30.4847 76.0002 38C75.9889 48.0762 71.9809 57.7364 64.856 64.8606C57.731 71.9847 48.071 75.9909 37.9959 76ZM37.9959 3.68682C31.2136 3.68682 24.5836 5.69825 18.9442 9.46675C13.3049 13.2352 8.90961 18.5916 6.31412 24.8583C3.71863 31.1251 3.03953 38.0209 4.3627 44.6737C5.68587 51.3265 8.95188 57.4374 13.7477 62.2338C18.5436 67.0302 24.6538 70.2966 31.3059 71.6199C37.9579 72.9432 44.8529 72.264 51.119 69.6683C57.3851 67.0725 62.7408 62.6767 66.5088 57.0367C70.2769 51.3968 72.2881 44.766 72.2881 37.9829C72.2722 28.8919 68.6542 20.1777 62.2266 13.7494C55.799 7.32111 47.0859 3.70269 37.9959 3.68682Z" fill="white"/>
<path d="M19.2635 37.5113C19.2635 33.8759 19.2635 30.2491 19.2635 26.6137C19.2328 26.2968 19.3067 25.9786 19.4739 25.7076C19.6411 25.4367 19.8924 25.2279 20.1894 25.1133C26.202 22.2153 32.2031 19.3087 38.1928 16.3935C38.4162 16.2712 38.6668 16.2071 38.9215 16.2071C39.1762 16.2071 39.4268 16.2712 39.6502 16.3935C45.5485 19.2658 51.4381 22.1467 57.3621 24.9675C57.7851 25.1228 58.1431 25.4165 58.3781 25.8009C58.6131 26.1854 58.7113 26.638 58.6566 27.0853C58.6223 34.1903 58.6223 41.2981 58.6566 48.4089C58.6828 48.7394 58.603 49.0697 58.4288 49.3518C58.2546 49.6339 57.9951 49.8532 57.6879 49.9779C51.6639 52.8702 45.6628 55.7825 39.6845 58.7148C39.4674 58.8326 39.2242 58.8943 38.9772 58.8943C38.7302 58.8943 38.4871 58.8326 38.2699 58.7148C32.1888 55.7711 26.1448 52.8445 20.138 49.935C19.8646 49.8216 19.6343 49.6244 19.4802 49.3717C19.3261 49.119 19.2563 48.8239 19.2807 48.5289C19.2807 44.8592 19.2807 41.1867 19.2807 37.5113H19.2635ZM21.4325 27.9941V28.4829C21.4325 34.8848 21.4325 41.2839 21.4325 47.6801C21.4149 47.8206 21.4462 47.9629 21.5212 48.0832C21.5961 48.2034 21.7101 48.2941 21.844 48.3403C27.0335 50.8439 32.2202 53.3561 37.4041 55.8768L37.8156 56.0569C37.8156 55.8768 37.8156 55.7482 37.8156 55.611C37.8156 49.1977 37.8156 42.75 37.8156 36.3709C37.8298 36.2374 37.7975 36.103 37.7241 35.9905C37.6506 35.878 37.5406 35.7943 37.4126 35.7536L25.7533 30.1033L21.4325 27.9941ZM47.6917 32.2211L47.2202 32.4441L40.4218 35.7279C40.2826 35.7759 40.1641 35.8702 40.0861 35.995C40.0081 36.1199 39.9753 36.2677 39.9931 36.4138C39.9931 42.8043 39.9931 49.192 39.9931 55.5767V56.0655L40.4732 55.8511C45.6628 53.3303 50.8495 50.8153 56.0333 48.306C56.1663 48.2567 56.2786 48.1636 56.3518 48.0421C56.425 47.9206 56.4548 47.7778 56.4362 47.6372C56.4362 41.2467 56.4362 34.8619 56.4362 28.4829V27.9856L56.0333 28.157C54.0958 29.1002 52.1583 30.0433 50.2122 30.9693C50.0929 31.0161 49.9926 31.1014 49.9274 31.2117C49.8621 31.322 49.8356 31.451 49.8521 31.5781C49.8521 33.4415 49.8521 35.3049 49.8521 37.1683C49.8566 37.3611 49.8393 37.5538 49.8007 37.7428C49.7587 37.9126 49.6755 38.0694 49.5584 38.1993C49.4413 38.3292 49.294 38.4282 49.1295 38.4876C48.965 38.5469 48.7885 38.5648 48.6154 38.5396C48.4424 38.5143 48.2782 38.4468 48.1375 38.343C47.9819 38.225 47.8586 38.0697 47.7791 37.8913C47.6997 37.7129 47.6667 37.5173 47.6831 37.3227C47.6831 35.6593 47.6831 33.9874 47.6831 32.1783L47.6917 32.2211ZM22.8213 26.1765C22.9102 26.2396 23.005 26.2942 23.1042 26.3394C28.2481 28.843 33.409 31.3437 38.5871 33.8416C38.6835 33.8819 38.787 33.9027 38.8915 33.9027C38.996 33.9027 39.0994 33.8819 39.1958 33.8416C41.482 32.7327 43.7938 31.6152 46.1314 30.4892L46.5001 30.292L46.32 30.1805C41.1248 27.6598 35.9238 25.1447 30.7171 22.6354C30.5236 22.5631 30.3105 22.5631 30.117 22.6354C27.8108 23.7329 25.5133 24.8561 23.2586 25.9707L22.8642 26.1765H22.8213ZM54.9617 26.1765L54.7645 26.0564L39.2044 18.6056C39.0083 18.5311 38.7918 18.5311 38.5957 18.6056C36.8811 19.463 35.1665 20.269 33.4519 21.1092L33.0747 21.315L33.3147 21.4607C38.4928 23.9701 43.6681 26.4765 48.8405 28.9802C49.0221 29.0527 49.2247 29.0527 49.4063 28.9802C51.1724 28.1228 52.9298 27.2654 54.6959 26.408L54.9959 26.245" fill="white"/>
</g>
<defs>
<clipPath id="clip0">
<rect width="76" height="76" fill="white"/>
</clipPath>
</defs>
</svg>
