<svg width="103" height="103" viewBox="0 0 103 103" fill="none" xmlns="http://www.w3.org/2000/svg">
<path d="M101.256 51.4913C101.26 61.3354 98.3435 70.9593 92.8766 79.1458C87.4097 87.3323 79.6376 93.7135 70.5435 97.4823C61.4495 101.251 51.4419 102.238 41.7868 100.318C32.1317 98.3987 23.2629 93.6587 16.3021 86.6979C9.34124 79.7371 4.60123 70.8682 2.68159 61.2131C0.761951 51.558 1.74893 41.5505 5.51769 32.4564C9.28645 23.3624 15.6677 15.5903 23.8541 10.1234C32.0406 4.65644 41.6646 1.74027 51.5087 1.74372C58.0416 1.74372 64.5106 3.03048 70.5463 5.53053C76.5819 8.03058 82.066 11.695 86.6855 16.3144C91.305 20.9339 94.9694 26.4181 97.4695 32.4537C99.9695 38.4894 101.256 44.9584 101.256 51.4913V51.4913Z" stroke="white" stroke-width="2" stroke-miterlimit="10"/>
<path d="M44.7432 32.5897V70.4104L68.8933 51.5087L44.7432 32.5897Z" stroke="white" stroke-width="2" stroke-miterlimit="10"/>
</svg>
