<svg width="55" height="55" viewBox="0 0 55 55" fill="none" xmlns="http://www.w3.org/2000/svg">
<path d="M52.5 28.5331V5.00004C52.5 2.24238 50.2564 0 47.5 0H5.00004C2.24367 0 0 2.24238 0 5.00004V47.5001C0 50.2577 2.24367 52.5 5.00004 52.5H28.5331C31.1597 54.0764 34.2205 55 37.5 55C47.1484 55 55 47.1496 55 37.5C55 34.2203 54.0764 31.1596 52.5 28.5331ZM27.5001 2.49996H47.5001C48.8795 2.49996 50.0001 3.6218 50.0001 4.99993V25.2763C46.8208 22.0258 42.3946 19.9999 37.5 19.9999C33.782 19.9999 30.3379 21.1743 27.5001 23.1594V2.49996ZM2.49996 5.00004C2.49996 3.62192 3.62063 2.50008 4.99993 2.50008H25V25.0001H2.49996V5.00004ZM5.00004 50.0001C3.62063 50.0001 2.50008 48.8782 2.50008 47.5001V27.5001H23.1595C21.1745 30.3378 20.0001 33.7819 20.0001 37.5C20.0001 42.395 22.026 46.8209 25.2764 50.0001H5.00004V50.0001ZM37.5 52.5C29.2286 52.5 22.5 45.7715 22.5 37.5C22.5 29.2286 29.2286 22.5 37.5 22.5C45.7715 22.5 52.5 29.2286 52.5 37.5C52.5 45.7715 45.7715 52.5 37.5 52.5Z" fill="black"/>
<path d="M18.75 12.5H15V8.75004C15 8.0591 14.4409 7.5 13.75 7.5C13.059 7.5 12.4999 8.0591 12.4999 8.75004V12.5H8.74992C8.05898 12.5 7.49988 13.0591 7.49988 13.7501C7.5 14.4409 8.0591 15 8.75004 15H12.5V18.75C12.5 19.4409 13.0591 20 13.7501 20C14.441 20 15.0001 19.4409 15.0001 18.75V15H18.7501C19.4411 15 20.0002 14.4409 20.0002 13.75C20 13.059 19.4409 12.5 18.75 12.5Z" fill="black"/>
<path d="M45 13.75C45 13.059 44.4409 12.4999 43.75 12.4999H33.75C33.0591 12.4999 32.5 13.059 32.5 13.75C32.5 14.4409 33.0591 15 33.75 15H43.75C44.4409 15 45 14.4409 45 13.75Z" fill="black"/>
<path d="M18.3838 34.1162C17.8955 33.6279 17.1045 33.6279 16.6163 34.1162L13.7501 36.9824L10.8839 34.1162C10.3956 33.6279 9.60457 33.6279 9.11636 34.1162C8.62804 34.6046 8.62804 35.3956 9.11636 35.8838L11.9825 38.7499L9.11636 41.6161C8.62804 42.1044 8.62804 42.8955 9.11636 43.3837C9.36046 43.6278 9.68039 43.7499 10.0002 43.7499C10.32 43.7499 10.6398 43.6278 10.884 43.3837L13.7502 40.5175L16.6164 43.3837C16.8605 43.6278 17.1804 43.7499 17.5002 43.7499C17.82 43.7499 18.1398 43.6278 18.384 43.3837C18.8723 42.8953 18.8723 42.1043 18.384 41.6161L15.5179 38.7499L18.384 35.8838C18.8721 35.3956 18.8721 34.6046 18.3838 34.1162Z" fill="black"/>
<path d="M43.7501 32.5H31.2502C30.5592 32.5 30.0001 33.0591 30.0001 33.75C30.0001 34.441 30.5592 35.0001 31.2502 35.0001H43.7502C44.4411 35.0001 45.0003 34.441 45.0003 33.75C45.0001 33.0591 44.441 32.5 43.7501 32.5Z" fill="black"/>
<path d="M43.7501 40H31.2502C30.5592 40 30.0001 40.5591 30.0001 41.25C30.0001 41.941 30.5592 42.5001 31.2502 42.5001H43.7502C44.4411 42.5001 45.0003 41.941 45.0003 41.25C45.0001 40.5591 44.441 40 43.7501 40Z" fill="black"/>
</svg>
