<svg width="76" height="79" viewBox="0 0 76 79" fill="none" xmlns="http://www.w3.org/2000/svg">
<g clip-path="url(#clip0)">
<path d="M37.9961 79C30.4816 78.9982 23.1364 76.6801 16.8891 72.3387C10.6419 67.9973 5.77321 61.8277 2.89872 54.6098C0.0242287 47.392 -0.72699 39.4501 0.740051 31.7885C2.20709 24.1268 5.82651 17.0894 11.1406 11.5661C16.4548 6.04285 23.225 2.28173 30.5952 0.758332C37.9654 -0.765062 45.6046 0.0176902 52.547 3.00761C59.4893 5.99754 65.4229 11.0604 69.5975 17.5559C73.7722 24.0515 76.0004 31.688 76.0004 39.5C75.989 49.974 71.9811 60.0154 64.8561 67.4208C57.7311 74.8262 48.0712 78.9906 37.9961 79ZM37.9961 3.83236C31.2137 3.83236 24.5837 5.92318 18.9444 9.84044C13.305 13.7577 8.90974 19.3254 6.31424 25.8396C3.71875 32.3537 3.03965 39.5217 4.36282 46.4371C5.68599 53.3525 8.95201 59.7047 13.7479 64.6904C18.5437 69.6761 24.654 73.0714 31.306 74.447C37.958 75.8225 44.853 75.1166 51.1191 72.4183C57.3852 69.7201 62.7409 65.1507 66.509 59.2882C70.277 53.4256 72.2882 46.533 72.2882 39.4822C72.2724 30.0323 68.6544 20.9742 62.2268 14.2922C55.7992 7.6101 47.086 3.84885 37.9961 3.83236Z" fill="white"/>
<path d="M31.3259 53.9203C31.7112 54.4655 31.9691 55.0964 32.0792 55.7631C32.1893 56.4299 32.1486 57.1141 31.9603 57.7616C31.6351 58.8972 30.8971 59.8563 29.9028 60.4354C29.3836 60.7985 28.7943 61.0391 28.1761 61.1403C27.5579 61.2414 26.926 61.2006 26.3246 61.0207C25.7232 60.8409 25.167 60.5263 24.6951 60.0991C24.2231 59.672 23.8468 59.1425 23.5927 58.5481C23.3385 57.9536 23.2127 57.3085 23.2239 56.658C23.2352 56.0076 23.3833 55.3676 23.6579 54.783C23.9324 54.1984 24.3268 53.6834 24.8132 53.2742C25.2996 52.8649 25.8664 52.5714 26.4736 52.4141C26.1135 50.6316 25.7477 48.8313 25.3762 47.0132C23.6616 38.5048 21.9327 29.9904 20.1896 21.4701C20.1038 21.078 20.0009 20.6769 19.9495 20.2758C19.8981 19.8748 19.7695 19.9193 19.5123 19.9193H15.903C15.2258 19.9193 14.8743 19.5896 14.8828 19.0281C14.8914 18.4666 15.2429 18.1368 15.9288 18.1368H20.3782C21.0469 18.1368 21.3126 18.3597 21.4412 19.0281C21.9642 21.5236 22.47 24.0191 22.9844 26.5235C22.9844 26.5858 22.9844 26.6571 23.0444 26.7641H23.6102C35.1924 26.7641 46.7574 26.7641 58.3653 26.7641C59.4627 26.7641 59.6941 27.4058 59.5227 28.2347C58.2196 34.3664 56.9307 40.5279 55.6562 46.7191C55.6282 46.9633 55.5113 47.1871 55.3296 47.3446C55.1478 47.502 54.915 47.5812 54.6789 47.5658C54.5331 47.5658 54.3874 47.5658 54.2417 47.5658H27.2709C27.5709 49.0541 27.8624 50.4891 28.1282 51.915C28.1506 51.9625 28.183 52.004 28.2231 52.0364C28.2632 52.0688 28.3099 52.0913 28.3597 52.1022C28.4906 52.1201 28.6231 52.1201 28.754 52.1022H53.1529C53.8309 52.0581 54.5088 52.1888 55.1265 52.4826C55.7442 52.7765 56.2825 53.2244 56.6936 53.7867C57.2392 54.437 57.5735 55.2496 57.6489 56.109C57.7243 56.9683 57.537 57.8304 57.1136 58.5727C56.732 59.3837 56.1085 60.0449 55.3361 60.4576C54.5637 60.8704 53.6836 61.0126 52.8271 60.8632C52.1285 60.7661 51.4646 60.4879 50.8965 60.0542C50.3284 59.6204 49.8745 59.045 49.5765 58.381C49.2785 57.717 49.1459 56.9857 49.1911 56.2544C49.2363 55.5232 49.4578 54.8155 49.8351 54.1966C49.8866 54.1164 49.9209 54.0362 49.9894 53.9114L31.3259 53.9203ZM24.4846 33.8673H56.102C56.1792 33.8673 56.2649 33.8673 56.3163 33.8673C56.3678 33.8673 56.5907 33.7247 56.6078 33.6267C56.9765 31.9333 57.3194 30.24 57.6795 28.5109H23.3873C23.7474 30.2934 24.1074 32.0759 24.4675 33.8584L24.4846 33.8673ZM41.3564 35.6409V45.7565H47.3575C47.9148 42.4055 48.472 39.0633 49.0721 35.6944L41.3564 35.6409ZM39.5818 45.7565V35.7122H32.3461C32.9119 39.0722 33.4692 42.4055 34.0607 45.7565H39.5818ZM32.2947 45.7565L30.5801 35.6855H24.8619C24.8619 35.8102 24.8619 35.9172 24.8619 36.0152C25.5477 39.1762 26.2078 42.3223 26.8422 45.4535C26.8937 45.712 27.0051 45.7655 27.228 45.7565H32.2947ZM50.7782 35.6944C50.2209 39.0455 49.6637 42.3876 49.0636 45.7565H54.0959C54.7989 42.4055 55.4933 39.0633 56.1878 35.6944H50.7782ZM27.931 59.0628C28.2629 59.0738 28.5936 59.0143 28.9026 58.888C29.2117 58.7617 29.4928 58.5712 29.7287 58.3282C29.9645 58.0852 30.1503 57.7947 30.2746 57.4745C30.3988 57.1544 30.459 56.8112 30.4514 56.4661C30.4438 56.1209 30.3687 55.781 30.2305 55.467C30.0922 55.1531 29.8939 54.8717 29.6476 54.6402C29.4013 54.4086 29.1122 54.2316 28.7978 54.1201C28.4835 54.0086 28.1507 53.9649 27.8196 53.9916C27.4876 53.9807 27.157 54.0401 26.8479 54.1665C26.5389 54.2928 26.2578 54.4832 26.0219 54.7263C25.786 54.9693 25.6003 55.2598 25.476 55.5799C25.3517 55.9001 25.2916 56.2433 25.2991 56.5884C25.3067 56.9336 25.3819 57.2735 25.5201 57.5875C25.6583 57.9014 25.8566 58.1827 26.103 58.4143C26.3493 58.6459 26.6384 58.8228 26.9527 58.9343C27.267 59.0458 27.5999 59.0896 27.931 59.0628ZM53.2986 59.0628C53.6299 59.0892 53.9629 59.0451 54.2772 58.9331C54.5915 58.8212 54.8806 58.6438 55.1267 58.4117C55.3728 58.1797 55.5708 57.8979 55.7086 57.5836C55.8463 57.2693 55.921 56.9291 55.928 56.5838C55.935 56.2384 55.8742 55.8953 55.7493 55.5752C55.6244 55.2551 55.438 54.9649 55.2015 54.7223C54.965 54.4797 54.6834 54.2898 54.3739 54.1641C54.0644 54.0385 53.7336 53.9798 53.4015 53.9916C53.0702 53.9653 52.7373 54.0094 52.423 54.1214C52.1086 54.2333 51.8196 54.4107 51.5735 54.6428C51.3274 54.8748 51.1294 55.1566 50.9916 55.4709C50.8538 55.7852 50.7791 56.1254 50.7721 56.4707C50.7651 56.816 50.8259 57.1592 50.9508 57.4793C51.0758 57.7993 51.2622 58.0896 51.4986 58.3322C51.7351 58.5748 52.0167 58.7647 52.3262 58.8904C52.6357 59.016 52.9666 59.0747 53.2986 59.0628Z" fill="white"/>
</g>
<defs>
<clipPath id="clip0">
<rect width="76" height="79" fill="white"/>
</clipPath>
</defs>
</svg>
